<svg viewBox="0 0 1240 1240" xmlns="http://www.w3.org/2000/svg" role="img" aria-label="فنجان قهوة">
  <g fill="none" stroke="#7d1d38" stroke-width="3.4" stroke-linecap="round" stroke-linejoin="round">
    <!-- steam -->
    <path d="M548 452c34-44 8-78-2-104s14-58 24-78" opacity="0.92"/>
    <path d="M636 452c46-58 6-104-6-140s22-78 36-104" opacity="0.92"/>

    <!-- saucer -->
    <ellipse cx="620" cy="985" rx="475" ry="118"/>
    <ellipse cx="620" cy="985" rx="392" ry="96" opacity="0.85"/>
    <ellipse cx="620" cy="1000" rx="250" ry="60" opacity="0.7"/>
    <path d="M395 1078c40 36 130 60 225 60s185-24 225-60" opacity="0.7"/>
    <path d="M455 1108c30 22 100 38 165 38s135-16 165-38" opacity="0.55"/>

    <!-- saucer florets -->
    <g opacity="0.8">
      <path d="M200 952c14-12 26-12 34 0 8-12 20-12 34 0-14 10-26 10-34 0-8 10-20 10-34 0z"/>
      <path d="M234 938c0 10-4 18-4 18s-4-8-4-18 4-16 4-16 4 6 4 16z"/>
    </g>
    <g opacity="0.8">
      <path d="M1006 952c14-12 26-12 34 0 8-12 20-12 34 0-14 10-26 10-34 0-8 10-20 10-34 0z"/>
      <path d="M1040 938c0 10-4 18-4 18s-4-8-4-18 4-16 4-16 4 6 4 16z"/>
    </g>

    <!-- cup rim -->
    <ellipse cx="615" cy="508" rx="300" ry="40"/>
    <path d="M318 512c0 18 134 64 297 64s297-46 297-64" opacity="0.85"/>

    <!-- cup body -->
    <path d="M322 520c8 150 70 300 160 372 40 32 86 40 133 40s93-8 133-40c90-72 152-222 160-372"/>
    <!-- decorative band -->
    <path d="M336 566c0 20 124 56 279 56s279-36 279-56"/>
    <path d="M352 624c0 20 118 50 263 50s263-30 263-50"/>
    <circle cx="372" cy="592" r="6" fill="#7d1d38"/>
    <circle cx="858" cy="592" r="6" fill="#7d1d38"/>
    <!-- center fleur -->
    <g>
      <path d="M615 588c-14 8-22 22-22 22s8 6 22 6 22-6 22-6-8-14-22-22z"/>
      <path d="M615 588c0-12 0-22 0-22"/>
      <circle cx="615" cy="636" r="5" fill="#7d1d38"/>
      <circle cx="586" cy="650" r="4" fill="#7d1d38"/>
      <circle cx="644" cy="650" r="4" fill="#7d1d38"/>
    </g>

    <!-- flutes -->
    <path d="M408 660c2 90 22 168 54 214" opacity="0.85"/>
    <path d="M470 668c0 96 8 180 22 230" opacity="0.85"/>
    <path d="M538 672c-2 100-2 188 4 244" opacity="0.85"/>
    <path d="M615 674v246" opacity="0.85"/>
    <path d="M692 672c2 100 2 188-4 244" opacity="0.85"/>
    <path d="M760 668c0 96-8 180-22 230" opacity="0.85"/>
    <path d="M822 660c-2 90-22 168-54 214" opacity="0.85"/>

    <!-- foot -->
    <path d="M470 916c30 26 90 40 145 40s115-14 145-40"/>
    <ellipse cx="615" cy="958" rx="148" ry="30"/>
    <path d="M500 980c24 18 70 28 115 28s91-10 115-28" opacity="0.8"/>

    <!-- handle -->
    <path d="M912 556c52-24 120-20 150 18 30 38 18 92-26 118-30 18-66 22-96 18"/>
    <path d="M918 596c40-18 92-14 112 14 20 28 10 66-22 84-22 12-48 14-72 12" opacity="0.85"/>
    <path d="M1024 560c18 0 32 14 32 32s-14 32-32 32" opacity="0.8"/>
  </g>
</svg>
