<svg xmlns="http://www.w3.org/2000/svg" viewBox="0 0 1600 180" preserveAspectRatio="none">
  <path fill="#6e1d33" d="M0 42C40 10 120 10 160 42s120 32 160 0 120-32 160 0 120 32 160 0 120-32 160 0 120 32 160 0 120-32 160 0 120 32 160 0 120-32 160 0 120 32 160 0 120-32 160 0v138H0Z"/>
  <path fill="#9fbdd8" d="M0 68c40-32 120-32 160 0s120 32 160 0 120-32 160 0 120 32 160 0 120-32 160 0 120 32 160 0 120-32 160 0 120 32 160 0 120-32 160 0 120 32 160 0 120-32 160 0v112H0Z"/>
  <path fill="#d9c6ad" d="M0 94c40-32 120-32 160 0s120 32 160 0 120-32 160 0 120 32 160 0 120-32 160 0 120 32 160 0 120-32 160 0 120 32 160 0 120-32 160 0 120 32 160 0 120-32 160 0v86H0Z"/>
  <path fill="#f7f1e7" d="M0 122c40-32 120-32 160 0s120 32 160 0 120-32 160 0 120 32 160 0 120-32 160 0 120 32 160 0 120-32 160 0 120 32 160 0 120-32 160 0 120 32 160 0 120-32 160 0v58H0Z"/>
  <path fill="none" stroke="#fffdf8" stroke-opacity=".72" stroke-width="2" d="M0 121c40-32 120-32 160 0s120 32 160 0 120-32 160 0 120 32 160 0 120-32 160 0 120 32 160 0 120-32 160 0 120 32 160 0 120-32 160 0 120 32 160 0 120-32 160 0"/>
</svg>
