<svg xmlns="http://www.w3.org/2000/svg" width="260" height="456" viewBox="0 0 260 456"><defs><clipPath id="c"><rect width="260" height="456"/></clipPath></defs><g clip-path="url(#c)"><path d="M 0 -152.00 L 6 -145.35 L 12 -138.85 L 18 -132.62 L 24 -126.79 L 30 -121.50 L 36 -116.84 L 42 -112.92 L 48 -109.83 L 54 -107.62 L 60 -106.34 L 66 -106.01 L 72 -106.66 L 78 -108.25 L 84 -110.76 L 90 -114.14 L 96 -118.32 L 102 -123.20 L 108 -128.68 L 114 -134.65 L 120 -140.99 L 126 -147.56 L 132 -154.22 L 138 -160.84 L 144 -167.27 L 150 -173.38 L 156 -179.04 L 162 -184.13 L 168 -188.55 L 174 -192.20 L 180 -195.01 L 186 -196.92 L 192 -197.88 L 198 -197.88 L 204 -196.92 L 210 -195.01 L 216 -192.20 L 222 -188.55 L 228 -184.13 L 234 -179.04 L 240 -173.38 L 246 -167.27 L 252 -160.84 L 258 -154.22 L 260 -114.00 L 254 -120.65 L 248 -127.15 L 242 -133.38 L 236 -139.21 L 230 -144.50 L 224 -149.16 L 218 -153.08 L 212 -156.17 L 206 -158.38 L 200 -159.66 L 194 -159.99 L 188 -159.34 L 182 -157.75 L 176 -155.24 L 170 -151.86 L 164 -147.68 L 158 -142.80 L 152 -137.32 L 146 -131.35 L 140 -125.01 L 134 -118.44 L 128 -111.78 L 122 -105.16 L 116 -98.73 L 110 -92.62 L 104 -86.96 L 98 -81.87 L 92 -77.45 L 86 -73.80 L 80 -70.99 L 74 -69.08 L 68 -68.12 L 62 -68.12 L 56 -69.08 L 50 -70.99 L 44 -73.80 L 38 -77.45 L 32 -81.87 L 26 -86.96 L 20 -92.62 L 14 -98.73 L 8 -105.16 L 2 -111.78 Z" fill="#6e1d33"/><path d="M 0 -114.00 L 6 -107.35 L 12 -100.85 L 18 -94.62 L 24 -88.79 L 30 -83.50 L 36 -78.84 L 42 -74.92 L 48 -71.83 L 54 -69.62 L 60 -68.34 L 66 -68.01 L 72 -68.66 L 78 -70.25 L 84 -72.76 L 90 -76.14 L 96 -80.32 L 102 -85.20 L 108 -90.68 L 114 -96.65 L 120 -102.99 L 126 -109.56 L 132 -116.22 L 138 -122.84 L 144 -129.27 L 150 -135.38 L 156 -141.04 L 162 -146.13 L 168 -150.55 L 174 -154.20 L 180 -157.01 L 186 -158.92 L 192 -159.88 L 198 -159.88 L 204 -158.92 L 210 -157.01 L 216 -154.20 L 222 -150.55 L 228 -146.13 L 234 -141.04 L 240 -135.38 L 246 -129.27 L 252 -122.84 L 258 -116.22 L 260 -76.00 L 254 -82.65 L 248 -89.15 L 242 -95.38 L 236 -101.21 L 230 -106.50 L 224 -111.16 L 218 -115.08 L 212 -118.17 L 206 -120.38 L 200 -121.66 L 194 -121.99 L 188 -121.34 L 182 -119.75 L 176 -117.24 L 170 -113.86 L 164 -109.68 L 158 -104.80 L 152 -99.32 L 146 -93.35 L 140 -87.01 L 134 -80.44 L 128 -73.78 L 122 -67.16 L 116 -60.73 L 110 -54.62 L 104 -48.96 L 98 -43.87 L 92 -39.45 L 86 -35.80 L 80 -32.99 L 74 -31.08 L 68 -30.12 L 62 -30.12 L 56 -31.08 L 50 -32.99 L 44 -35.80 L 38 -39.45 L 32 -43.87 L 26 -48.96 L 20 -54.62 L 14 -60.73 L 8 -67.16 L 2 -73.78 Z" fill="#9fbdd8"/><path d="M 0 -76.00 L 6 -69.35 L 12 -62.85 L 18 -56.62 L 24 -50.79 L 30 -45.50 L 36 -40.84 L 42 -36.92 L 48 -33.83 L 54 -31.62 L 60 -30.34 L 66 -30.01 L 72 -30.66 L 78 -32.25 L 84 -34.76 L 90 -38.14 L 96 -42.32 L 102 -47.20 L 108 -52.68 L 114 -58.65 L 120 -64.99 L 126 -71.56 L 132 -78.22 L 138 -84.84 L 144 -91.27 L 150 -97.38 L 156 -103.04 L 162 -108.13 L 168 -112.55 L 174 -116.20 L 180 -119.01 L 186 -120.92 L 192 -121.88 L 198 -121.88 L 204 -120.92 L 210 -119.01 L 216 -116.20 L 222 -112.55 L 228 -108.13 L 234 -103.04 L 240 -97.38 L 246 -91.27 L 252 -84.84 L 258 -78.22 L 260 -38.00 L 254 -44.65 L 248 -51.15 L 242 -57.38 L 236 -63.21 L 230 -68.50 L 224 -73.16 L 218 -77.08 L 212 -80.17 L 206 -82.38 L 200 -83.66 L 194 -83.99 L 188 -83.34 L 182 -81.75 L 176 -79.24 L 170 -75.86 L 164 -71.68 L 158 -66.80 L 152 -61.32 L 146 -55.35 L 140 -49.01 L 134 -42.44 L 128 -35.78 L 122 -29.16 L 116 -22.73 L 110 -16.62 L 104 -10.96 L 98 -5.87 L 92 -1.45 L 86 2.20 L 80 5.01 L 74 6.92 L 68 7.88 L 62 7.88 L 56 6.92 L 50 5.01 L 44 2.20 L 38 -1.45 L 32 -5.87 L 26 -10.96 L 20 -16.62 L 14 -22.73 L 8 -29.16 L 2 -35.78 Z" fill="#d9c6ad"/><path d="M 0 -38.00 L 6 -31.35 L 12 -24.85 L 18 -18.62 L 24 -12.79 L 30 -7.50 L 36 -2.84 L 42 1.08 L 48 4.17 L 54 6.38 L 60 7.66 L 66 7.99 L 72 7.34 L 78 5.75 L 84 3.24 L 90 -0.14 L 96 -4.32 L 102 -9.20 L 108 -14.68 L 114 -20.65 L 120 -26.99 L 126 -33.56 L 132 -40.22 L 138 -46.84 L 144 -53.27 L 150 -59.38 L 156 -65.04 L 162 -70.13 L 168 -74.55 L 174 -78.20 L 180 -81.01 L 186 -82.92 L 192 -83.88 L 198 -83.88 L 204 -82.92 L 210 -81.01 L 216 -78.20 L 222 -74.55 L 228 -70.13 L 234 -65.04 L 240 -59.38 L 246 -53.27 L 252 -46.84 L 258 -40.22 L 260 -0.00 L 254 -6.65 L 248 -13.15 L 242 -19.38 L 236 -25.21 L 230 -30.50 L 224 -35.16 L 218 -39.08 L 212 -42.17 L 206 -44.38 L 200 -45.66 L 194 -45.99 L 188 -45.34 L 182 -43.75 L 176 -41.24 L 170 -37.86 L 164 -33.68 L 158 -28.80 L 152 -23.32 L 146 -17.35 L 140 -11.01 L 134 -4.44 L 128 2.22 L 122 8.84 L 116 15.27 L 110 21.38 L 104 27.04 L 98 32.13 L 92 36.55 L 86 40.20 L 80 43.01 L 74 44.92 L 68 45.88 L 62 45.88 L 56 44.92 L 50 43.01 L 44 40.20 L 38 36.55 L 32 32.13 L 26 27.04 L 20 21.38 L 14 15.27 L 8 8.84 L 2 2.22 Z" fill="#f5efe3"/><path d="M 0 0.00 L 6 6.65 L 12 13.15 L 18 19.38 L 24 25.21 L 30 30.50 L 36 35.16 L 42 39.08 L 48 42.17 L 54 44.38 L 60 45.66 L 66 45.99 L 72 45.34 L 78 43.75 L 84 41.24 L 90 37.86 L 96 33.68 L 102 28.80 L 108 23.32 L 114 17.35 L 120 11.01 L 126 4.44 L 132 -2.22 L 138 -8.84 L 144 -15.27 L 150 -21.38 L 156 -27.04 L 162 -32.13 L 168 -36.55 L 174 -40.20 L 180 -43.01 L 186 -44.92 L 192 -45.88 L 198 -45.88 L 204 -44.92 L 210 -43.01 L 216 -40.20 L 222 -36.55 L 228 -32.13 L 234 -27.04 L 240 -21.38 L 246 -15.27 L 252 -8.84 L 258 -2.22 L 260 38.00 L 254 31.35 L 248 24.85 L 242 18.62 L 236 12.79 L 230 7.50 L 224 2.84 L 218 -1.08 L 212 -4.17 L 206 -6.38 L 200 -7.66 L 194 -7.99 L 188 -7.34 L 182 -5.75 L 176 -3.24 L 170 0.14 L 164 4.32 L 158 9.20 L 152 14.68 L 146 20.65 L 140 26.99 L 134 33.56 L 128 40.22 L 122 46.84 L 116 53.27 L 110 59.38 L 104 65.04 L 98 70.13 L 92 74.55 L 86 78.20 L 80 81.01 L 74 82.92 L 68 83.88 L 62 83.88 L 56 82.92 L 50 81.01 L 44 78.20 L 38 74.55 L 32 70.13 L 26 65.04 L 20 59.38 L 14 53.27 L 8 46.84 L 2 40.22 Z" fill="#6e1d33"/><path d="M 0 38.00 L 6 44.65 L 12 51.15 L 18 57.38 L 24 63.21 L 30 68.50 L 36 73.16 L 42 77.08 L 48 80.17 L 54 82.38 L 60 83.66 L 66 83.99 L 72 83.34 L 78 81.75 L 84 79.24 L 90 75.86 L 96 71.68 L 102 66.80 L 108 61.32 L 114 55.35 L 120 49.01 L 126 42.44 L 132 35.78 L 138 29.16 L 144 22.73 L 150 16.62 L 156 10.96 L 162 5.87 L 168 1.45 L 174 -2.20 L 180 -5.01 L 186 -6.92 L 192 -7.88 L 198 -7.88 L 204 -6.92 L 210 -5.01 L 216 -2.20 L 222 1.45 L 228 5.87 L 234 10.96 L 240 16.62 L 246 22.73 L 252 29.16 L 258 35.78 L 260 76.00 L 254 69.35 L 248 62.85 L 242 56.62 L 236 50.79 L 230 45.50 L 224 40.84 L 218 36.92 L 212 33.83 L 206 31.62 L 200 30.34 L 194 30.01 L 188 30.66 L 182 32.25 L 176 34.76 L 170 38.14 L 164 42.32 L 158 47.20 L 152 52.68 L 146 58.65 L 140 64.99 L 134 71.56 L 128 78.22 L 122 84.84 L 116 91.27 L 110 97.38 L 104 103.04 L 98 108.13 L 92 112.55 L 86 116.20 L 80 119.01 L 74 120.92 L 68 121.88 L 62 121.88 L 56 120.92 L 50 119.01 L 44 116.20 L 38 112.55 L 32 108.13 L 26 103.04 L 20 97.38 L 14 91.27 L 8 84.84 L 2 78.22 Z" fill="#9fbdd8"/><path d="M 0 76.00 L 6 82.65 L 12 89.15 L 18 95.38 L 24 101.21 L 30 106.50 L 36 111.16 L 42 115.08 L 48 118.17 L 54 120.38 L 60 121.66 L 66 121.99 L 72 121.34 L 78 119.75 L 84 117.24 L 90 113.86 L 96 109.68 L 102 104.80 L 108 99.32 L 114 93.35 L 120 87.01 L 126 80.44 L 132 73.78 L 138 67.16 L 144 60.73 L 150 54.62 L 156 48.96 L 162 43.87 L 168 39.45 L 174 35.80 L 180 32.99 L 186 31.08 L 192 30.12 L 198 30.12 L 204 31.08 L 210 32.99 L 216 35.80 L 222 39.45 L 228 43.87 L 234 48.96 L 240 54.62 L 246 60.73 L 252 67.16 L 258 73.78 L 260 114.00 L 254 107.35 L 248 100.85 L 242 94.62 L 236 88.79 L 230 83.50 L 224 78.84 L 218 74.92 L 212 71.83 L 206 69.62 L 200 68.34 L 194 68.01 L 188 68.66 L 182 70.25 L 176 72.76 L 170 76.14 L 164 80.32 L 158 85.20 L 152 90.68 L 146 96.65 L 140 102.99 L 134 109.56 L 128 116.22 L 122 122.84 L 116 129.27 L 110 135.38 L 104 141.04 L 98 146.13 L 92 150.55 L 86 154.20 L 80 157.01 L 74 158.92 L 68 159.88 L 62 159.88 L 56 158.92 L 50 157.01 L 44 154.20 L 38 150.55 L 32 146.13 L 26 141.04 L 20 135.38 L 14 129.27 L 8 122.84 L 2 116.22 Z" fill="#d9c6ad"/><path d="M 0 114.00 L 6 120.65 L 12 127.15 L 18 133.38 L 24 139.21 L 30 144.50 L 36 149.16 L 42 153.08 L 48 156.17 L 54 158.38 L 60 159.66 L 66 159.99 L 72 159.34 L 78 157.75 L 84 155.24 L 90 151.86 L 96 147.68 L 102 142.80 L 108 137.32 L 114 131.35 L 120 125.01 L 126 118.44 L 132 111.78 L 138 105.16 L 144 98.73 L 150 92.62 L 156 86.96 L 162 81.87 L 168 77.45 L 174 73.80 L 180 70.99 L 186 69.08 L 192 68.12 L 198 68.12 L 204 69.08 L 210 70.99 L 216 73.80 L 222 77.45 L 228 81.87 L 234 86.96 L 240 92.62 L 246 98.73 L 252 105.16 L 258 111.78 L 260 152.00 L 254 145.35 L 248 138.85 L 242 132.62 L 236 126.79 L 230 121.50 L 224 116.84 L 218 112.92 L 212 109.83 L 206 107.62 L 200 106.34 L 194 106.01 L 188 106.66 L 182 108.25 L 176 110.76 L 170 114.14 L 164 118.32 L 158 123.20 L 152 128.68 L 146 134.65 L 140 140.99 L 134 147.56 L 128 154.22 L 122 160.84 L 116 167.27 L 110 173.38 L 104 179.04 L 98 184.13 L 92 188.55 L 86 192.20 L 80 195.01 L 74 196.92 L 68 197.88 L 62 197.88 L 56 196.92 L 50 195.01 L 44 192.20 L 38 188.55 L 32 184.13 L 26 179.04 L 20 173.38 L 14 167.27 L 8 160.84 L 2 154.22 Z" fill="#f5efe3"/><path d="M 0 152.00 L 6 158.65 L 12 165.15 L 18 171.38 L 24 177.21 L 30 182.50 L 36 187.16 L 42 191.08 L 48 194.17 L 54 196.38 L 60 197.66 L 66 197.99 L 72 197.34 L 78 195.75 L 84 193.24 L 90 189.86 L 96 185.68 L 102 180.80 L 108 175.32 L 114 169.35 L 120 163.01 L 126 156.44 L 132 149.78 L 138 143.16 L 144 136.73 L 150 130.62 L 156 124.96 L 162 119.87 L 168 115.45 L 174 111.80 L 180 108.99 L 186 107.08 L 192 106.12 L 198 106.12 L 204 107.08 L 210 108.99 L 216 111.80 L 222 115.45 L 228 119.87 L 234 124.96 L 240 130.62 L 246 136.73 L 252 143.16 L 258 149.78 L 260 190.00 L 254 183.35 L 248 176.85 L 242 170.62 L 236 164.79 L 230 159.50 L 224 154.84 L 218 150.92 L 212 147.83 L 206 145.62 L 200 144.34 L 194 144.01 L 188 144.66 L 182 146.25 L 176 148.76 L 170 152.14 L 164 156.32 L 158 161.20 L 152 166.68 L 146 172.65 L 140 178.99 L 134 185.56 L 128 192.22 L 122 198.84 L 116 205.27 L 110 211.38 L 104 217.04 L 98 222.13 L 92 226.55 L 86 230.20 L 80 233.01 L 74 234.92 L 68 235.88 L 62 235.88 L 56 234.92 L 50 233.01 L 44 230.20 L 38 226.55 L 32 222.13 L 26 217.04 L 20 211.38 L 14 205.27 L 8 198.84 L 2 192.22 Z" fill="#6e1d33"/><path d="M 0 190.00 L 6 196.65 L 12 203.15 L 18 209.38 L 24 215.21 L 30 220.50 L 36 225.16 L 42 229.08 L 48 232.17 L 54 234.38 L 60 235.66 L 66 235.99 L 72 235.34 L 78 233.75 L 84 231.24 L 90 227.86 L 96 223.68 L 102 218.80 L 108 213.32 L 114 207.35 L 120 201.01 L 126 194.44 L 132 187.78 L 138 181.16 L 144 174.73 L 150 168.62 L 156 162.96 L 162 157.87 L 168 153.45 L 174 149.80 L 180 146.99 L 186 145.08 L 192 144.12 L 198 144.12 L 204 145.08 L 210 146.99 L 216 149.80 L 222 153.45 L 228 157.87 L 234 162.96 L 240 168.62 L 246 174.73 L 252 181.16 L 258 187.78 L 260 228.00 L 254 221.35 L 248 214.85 L 242 208.62 L 236 202.79 L 230 197.50 L 224 192.84 L 218 188.92 L 212 185.83 L 206 183.62 L 200 182.34 L 194 182.01 L 188 182.66 L 182 184.25 L 176 186.76 L 170 190.14 L 164 194.32 L 158 199.20 L 152 204.68 L 146 210.65 L 140 216.99 L 134 223.56 L 128 230.22 L 122 236.84 L 116 243.27 L 110 249.38 L 104 255.04 L 98 260.13 L 92 264.55 L 86 268.20 L 80 271.01 L 74 272.92 L 68 273.88 L 62 273.88 L 56 272.92 L 50 271.01 L 44 268.20 L 38 264.55 L 32 260.13 L 26 255.04 L 20 249.38 L 14 243.27 L 8 236.84 L 2 230.22 Z" fill="#9fbdd8"/><path d="M 0 228.00 L 6 234.65 L 12 241.15 L 18 247.38 L 24 253.21 L 30 258.50 L 36 263.16 L 42 267.08 L 48 270.17 L 54 272.38 L 60 273.66 L 66 273.99 L 72 273.34 L 78 271.75 L 84 269.24 L 90 265.86 L 96 261.68 L 102 256.80 L 108 251.32 L 114 245.35 L 120 239.01 L 126 232.44 L 132 225.78 L 138 219.16 L 144 212.73 L 150 206.62 L 156 200.96 L 162 195.87 L 168 191.45 L 174 187.80 L 180 184.99 L 186 183.08 L 192 182.12 L 198 182.12 L 204 183.08 L 210 184.99 L 216 187.80 L 222 191.45 L 228 195.87 L 234 200.96 L 240 206.62 L 246 212.73 L 252 219.16 L 258 225.78 L 260 266.00 L 254 259.35 L 248 252.85 L 242 246.62 L 236 240.79 L 230 235.50 L 224 230.84 L 218 226.92 L 212 223.83 L 206 221.62 L 200 220.34 L 194 220.01 L 188 220.66 L 182 222.25 L 176 224.76 L 170 228.14 L 164 232.32 L 158 237.20 L 152 242.68 L 146 248.65 L 140 254.99 L 134 261.56 L 128 268.22 L 122 274.84 L 116 281.27 L 110 287.38 L 104 293.04 L 98 298.13 L 92 302.55 L 86 306.20 L 80 309.01 L 74 310.92 L 68 311.88 L 62 311.88 L 56 310.92 L 50 309.01 L 44 306.20 L 38 302.55 L 32 298.13 L 26 293.04 L 20 287.38 L 14 281.27 L 8 274.84 L 2 268.22 Z" fill="#d9c6ad"/><path d="M 0 266.00 L 6 272.65 L 12 279.15 L 18 285.38 L 24 291.21 L 30 296.50 L 36 301.16 L 42 305.08 L 48 308.17 L 54 310.38 L 60 311.66 L 66 311.99 L 72 311.34 L 78 309.75 L 84 307.24 L 90 303.86 L 96 299.68 L 102 294.80 L 108 289.32 L 114 283.35 L 120 277.01 L 126 270.44 L 132 263.78 L 138 257.16 L 144 250.73 L 150 244.62 L 156 238.96 L 162 233.87 L 168 229.45 L 174 225.80 L 180 222.99 L 186 221.08 L 192 220.12 L 198 220.12 L 204 221.08 L 210 222.99 L 216 225.80 L 222 229.45 L 228 233.87 L 234 238.96 L 240 244.62 L 246 250.73 L 252 257.16 L 258 263.78 L 260 304.00 L 254 297.35 L 248 290.85 L 242 284.62 L 236 278.79 L 230 273.50 L 224 268.84 L 218 264.92 L 212 261.83 L 206 259.62 L 200 258.34 L 194 258.01 L 188 258.66 L 182 260.25 L 176 262.76 L 170 266.14 L 164 270.32 L 158 275.20 L 152 280.68 L 146 286.65 L 140 292.99 L 134 299.56 L 128 306.22 L 122 312.84 L 116 319.27 L 110 325.38 L 104 331.04 L 98 336.13 L 92 340.55 L 86 344.20 L 80 347.01 L 74 348.92 L 68 349.88 L 62 349.88 L 56 348.92 L 50 347.01 L 44 344.20 L 38 340.55 L 32 336.13 L 26 331.04 L 20 325.38 L 14 319.27 L 8 312.84 L 2 306.22 Z" fill="#f5efe3"/><path d="M 0 304.00 L 6 310.65 L 12 317.15 L 18 323.38 L 24 329.21 L 30 334.50 L 36 339.16 L 42 343.08 L 48 346.17 L 54 348.38 L 60 349.66 L 66 349.99 L 72 349.34 L 78 347.75 L 84 345.24 L 90 341.86 L 96 337.68 L 102 332.80 L 108 327.32 L 114 321.35 L 120 315.01 L 126 308.44 L 132 301.78 L 138 295.16 L 144 288.73 L 150 282.62 L 156 276.96 L 162 271.87 L 168 267.45 L 174 263.80 L 180 260.99 L 186 259.08 L 192 258.12 L 198 258.12 L 204 259.08 L 210 260.99 L 216 263.80 L 222 267.45 L 228 271.87 L 234 276.96 L 240 282.62 L 246 288.73 L 252 295.16 L 258 301.78 L 260 342.00 L 254 335.35 L 248 328.85 L 242 322.62 L 236 316.79 L 230 311.50 L 224 306.84 L 218 302.92 L 212 299.83 L 206 297.62 L 200 296.34 L 194 296.01 L 188 296.66 L 182 298.25 L 176 300.76 L 170 304.14 L 164 308.32 L 158 313.20 L 152 318.68 L 146 324.65 L 140 330.99 L 134 337.56 L 128 344.22 L 122 350.84 L 116 357.27 L 110 363.38 L 104 369.04 L 98 374.13 L 92 378.55 L 86 382.20 L 80 385.01 L 74 386.92 L 68 387.88 L 62 387.88 L 56 386.92 L 50 385.01 L 44 382.20 L 38 378.55 L 32 374.13 L 26 369.04 L 20 363.38 L 14 357.27 L 8 350.84 L 2 344.22 Z" fill="#6e1d33"/><path d="M 0 342.00 L 6 348.65 L 12 355.15 L 18 361.38 L 24 367.21 L 30 372.50 L 36 377.16 L 42 381.08 L 48 384.17 L 54 386.38 L 60 387.66 L 66 387.99 L 72 387.34 L 78 385.75 L 84 383.24 L 90 379.86 L 96 375.68 L 102 370.80 L 108 365.32 L 114 359.35 L 120 353.01 L 126 346.44 L 132 339.78 L 138 333.16 L 144 326.73 L 150 320.62 L 156 314.96 L 162 309.87 L 168 305.45 L 174 301.80 L 180 298.99 L 186 297.08 L 192 296.12 L 198 296.12 L 204 297.08 L 210 298.99 L 216 301.80 L 222 305.45 L 228 309.87 L 234 314.96 L 240 320.62 L 246 326.73 L 252 333.16 L 258 339.78 L 260 380.00 L 254 373.35 L 248 366.85 L 242 360.62 L 236 354.79 L 230 349.50 L 224 344.84 L 218 340.92 L 212 337.83 L 206 335.62 L 200 334.34 L 194 334.01 L 188 334.66 L 182 336.25 L 176 338.76 L 170 342.14 L 164 346.32 L 158 351.20 L 152 356.68 L 146 362.65 L 140 368.99 L 134 375.56 L 128 382.22 L 122 388.84 L 116 395.27 L 110 401.38 L 104 407.04 L 98 412.13 L 92 416.55 L 86 420.20 L 80 423.01 L 74 424.92 L 68 425.88 L 62 425.88 L 56 424.92 L 50 423.01 L 44 420.20 L 38 416.55 L 32 412.13 L 26 407.04 L 20 401.38 L 14 395.27 L 8 388.84 L 2 382.22 Z" fill="#9fbdd8"/><path d="M 0 380.00 L 6 386.65 L 12 393.15 L 18 399.38 L 24 405.21 L 30 410.50 L 36 415.16 L 42 419.08 L 48 422.17 L 54 424.38 L 60 425.66 L 66 425.99 L 72 425.34 L 78 423.75 L 84 421.24 L 90 417.86 L 96 413.68 L 102 408.80 L 108 403.32 L 114 397.35 L 120 391.01 L 126 384.44 L 132 377.78 L 138 371.16 L 144 364.73 L 150 358.62 L 156 352.96 L 162 347.87 L 168 343.45 L 174 339.80 L 180 336.99 L 186 335.08 L 192 334.12 L 198 334.12 L 204 335.08 L 210 336.99 L 216 339.80 L 222 343.45 L 228 347.87 L 234 352.96 L 240 358.62 L 246 364.73 L 252 371.16 L 258 377.78 L 260 418.00 L 254 411.35 L 248 404.85 L 242 398.62 L 236 392.79 L 230 387.50 L 224 382.84 L 218 378.92 L 212 375.83 L 206 373.62 L 200 372.34 L 194 372.01 L 188 372.66 L 182 374.25 L 176 376.76 L 170 380.14 L 164 384.32 L 158 389.20 L 152 394.68 L 146 400.65 L 140 406.99 L 134 413.56 L 128 420.22 L 122 426.84 L 116 433.27 L 110 439.38 L 104 445.04 L 98 450.13 L 92 454.55 L 86 458.20 L 80 461.01 L 74 462.92 L 68 463.88 L 62 463.88 L 56 462.92 L 50 461.01 L 44 458.20 L 38 454.55 L 32 450.13 L 26 445.04 L 20 439.38 L 14 433.27 L 8 426.84 L 2 420.22 Z" fill="#d9c6ad"/><path d="M 0 418.00 L 6 424.65 L 12 431.15 L 18 437.38 L 24 443.21 L 30 448.50 L 36 453.16 L 42 457.08 L 48 460.17 L 54 462.38 L 60 463.66 L 66 463.99 L 72 463.34 L 78 461.75 L 84 459.24 L 90 455.86 L 96 451.68 L 102 446.80 L 108 441.32 L 114 435.35 L 120 429.01 L 126 422.44 L 132 415.78 L 138 409.16 L 144 402.73 L 150 396.62 L 156 390.96 L 162 385.87 L 168 381.45 L 174 377.80 L 180 374.99 L 186 373.08 L 192 372.12 L 198 372.12 L 204 373.08 L 210 374.99 L 216 377.80 L 222 381.45 L 228 385.87 L 234 390.96 L 240 396.62 L 246 402.73 L 252 409.16 L 258 415.78 L 260 456.00 L 254 449.35 L 248 442.85 L 242 436.62 L 236 430.79 L 230 425.50 L 224 420.84 L 218 416.92 L 212 413.83 L 206 411.62 L 200 410.34 L 194 410.01 L 188 410.66 L 182 412.25 L 176 414.76 L 170 418.14 L 164 422.32 L 158 427.20 L 152 432.68 L 146 438.65 L 140 444.99 L 134 451.56 L 128 458.22 L 122 464.84 L 116 471.27 L 110 477.38 L 104 483.04 L 98 488.13 L 92 492.55 L 86 496.20 L 80 499.01 L 74 500.92 L 68 501.88 L 62 501.88 L 56 500.92 L 50 499.01 L 44 496.20 L 38 492.55 L 32 488.13 L 26 483.04 L 20 477.38 L 14 471.27 L 8 464.84 L 2 458.22 Z" fill="#f5efe3"/><path d="M 0 456.00 L 6 462.65 L 12 469.15 L 18 475.38 L 24 481.21 L 30 486.50 L 36 491.16 L 42 495.08 L 48 498.17 L 54 500.38 L 60 501.66 L 66 501.99 L 72 501.34 L 78 499.75 L 84 497.24 L 90 493.86 L 96 489.68 L 102 484.80 L 108 479.32 L 114 473.35 L 120 467.01 L 126 460.44 L 132 453.78 L 138 447.16 L 144 440.73 L 150 434.62 L 156 428.96 L 162 423.87 L 168 419.45 L 174 415.80 L 180 412.99 L 186 411.08 L 192 410.12 L 198 410.12 L 204 411.08 L 210 412.99 L 216 415.80 L 222 419.45 L 228 423.87 L 234 428.96 L 240 434.62 L 246 440.73 L 252 447.16 L 258 453.78 L 260 494.00 L 254 487.35 L 248 480.85 L 242 474.62 L 236 468.79 L 230 463.50 L 224 458.84 L 218 454.92 L 212 451.83 L 206 449.62 L 200 448.34 L 194 448.01 L 188 448.66 L 182 450.25 L 176 452.76 L 170 456.14 L 164 460.32 L 158 465.20 L 152 470.68 L 146 476.65 L 140 482.99 L 134 489.56 L 128 496.22 L 122 502.84 L 116 509.27 L 110 515.38 L 104 521.04 L 98 526.13 L 92 530.55 L 86 534.20 L 80 537.01 L 74 538.92 L 68 539.88 L 62 539.88 L 56 538.92 L 50 537.01 L 44 534.20 L 38 530.55 L 32 526.13 L 26 521.04 L 20 515.38 L 14 509.27 L 8 502.84 L 2 496.22 Z" fill="#6e1d33"/><path d="M 0 494.00 L 6 500.65 L 12 507.15 L 18 513.38 L 24 519.21 L 30 524.50 L 36 529.16 L 42 533.08 L 48 536.17 L 54 538.38 L 60 539.66 L 66 539.99 L 72 539.34 L 78 537.75 L 84 535.24 L 90 531.86 L 96 527.68 L 102 522.80 L 108 517.32 L 114 511.35 L 120 505.01 L 126 498.44 L 132 491.78 L 138 485.16 L 144 478.73 L 150 472.62 L 156 466.96 L 162 461.87 L 168 457.45 L 174 453.80 L 180 450.99 L 186 449.08 L 192 448.12 L 198 448.12 L 204 449.08 L 210 450.99 L 216 453.80 L 222 457.45 L 228 461.87 L 234 466.96 L 240 472.62 L 246 478.73 L 252 485.16 L 258 491.78 L 260 532.00 L 254 525.35 L 248 518.85 L 242 512.62 L 236 506.79 L 230 501.50 L 224 496.84 L 218 492.92 L 212 489.83 L 206 487.62 L 200 486.34 L 194 486.01 L 188 486.66 L 182 488.25 L 176 490.76 L 170 494.14 L 164 498.32 L 158 503.20 L 152 508.68 L 146 514.65 L 140 520.99 L 134 527.56 L 128 534.22 L 122 540.84 L 116 547.27 L 110 553.38 L 104 559.04 L 98 564.13 L 92 568.55 L 86 572.20 L 80 575.01 L 74 576.92 L 68 577.88 L 62 577.88 L 56 576.92 L 50 575.01 L 44 572.20 L 38 568.55 L 32 564.13 L 26 559.04 L 20 553.38 L 14 547.27 L 8 540.84 L 2 534.22 Z" fill="#9fbdd8"/><path d="M 0 532.00 L 6 538.65 L 12 545.15 L 18 551.38 L 24 557.21 L 30 562.50 L 36 567.16 L 42 571.08 L 48 574.17 L 54 576.38 L 60 577.66 L 66 577.99 L 72 577.34 L 78 575.75 L 84 573.24 L 90 569.86 L 96 565.68 L 102 560.80 L 108 555.32 L 114 549.35 L 120 543.01 L 126 536.44 L 132 529.78 L 138 523.16 L 144 516.73 L 150 510.62 L 156 504.96 L 162 499.87 L 168 495.45 L 174 491.80 L 180 488.99 L 186 487.08 L 192 486.12 L 198 486.12 L 204 487.08 L 210 488.99 L 216 491.80 L 222 495.45 L 228 499.87 L 234 504.96 L 240 510.62 L 246 516.73 L 252 523.16 L 258 529.78 L 260 570.00 L 254 563.35 L 248 556.85 L 242 550.62 L 236 544.79 L 230 539.50 L 224 534.84 L 218 530.92 L 212 527.83 L 206 525.62 L 200 524.34 L 194 524.01 L 188 524.66 L 182 526.25 L 176 528.76 L 170 532.14 L 164 536.32 L 158 541.20 L 152 546.68 L 146 552.65 L 140 558.99 L 134 565.56 L 128 572.22 L 122 578.84 L 116 585.27 L 110 591.38 L 104 597.04 L 98 602.13 L 92 606.55 L 86 610.20 L 80 613.01 L 74 614.92 L 68 615.88 L 62 615.88 L 56 614.92 L 50 613.01 L 44 610.20 L 38 606.55 L 32 602.13 L 26 597.04 L 20 591.38 L 14 585.27 L 8 578.84 L 2 572.22 Z" fill="#d9c6ad"/><path d="M 0 570.00 L 6 576.65 L 12 583.15 L 18 589.38 L 24 595.21 L 30 600.50 L 36 605.16 L 42 609.08 L 48 612.17 L 54 614.38 L 60 615.66 L 66 615.99 L 72 615.34 L 78 613.75 L 84 611.24 L 90 607.86 L 96 603.68 L 102 598.80 L 108 593.32 L 114 587.35 L 120 581.01 L 126 574.44 L 132 567.78 L 138 561.16 L 144 554.73 L 150 548.62 L 156 542.96 L 162 537.87 L 168 533.45 L 174 529.80 L 180 526.99 L 186 525.08 L 192 524.12 L 198 524.12 L 204 525.08 L 210 526.99 L 216 529.80 L 222 533.45 L 228 537.87 L 234 542.96 L 240 548.62 L 246 554.73 L 252 561.16 L 258 567.78 L 260 608.00 L 254 601.35 L 248 594.85 L 242 588.62 L 236 582.79 L 230 577.50 L 224 572.84 L 218 568.92 L 212 565.83 L 206 563.62 L 200 562.34 L 194 562.01 L 188 562.66 L 182 564.25 L 176 566.76 L 170 570.14 L 164 574.32 L 158 579.20 L 152 584.68 L 146 590.65 L 140 596.99 L 134 603.56 L 128 610.22 L 122 616.84 L 116 623.27 L 110 629.38 L 104 635.04 L 98 640.13 L 92 644.55 L 86 648.20 L 80 651.01 L 74 652.92 L 68 653.88 L 62 653.88 L 56 652.92 L 50 651.01 L 44 648.20 L 38 644.55 L 32 640.13 L 26 635.04 L 20 629.38 L 14 623.27 L 8 616.84 L 2 610.22 Z" fill="#f5efe3"/></g></svg>